<?xml version="1.0" encoding="UTF-8"?>
<!DOCTYPE svg PUBLIC "-//W3C//DTD SVG 1.1//EN" "http://www.w3.org/Graphics/SVG/1.1/DTD/svg11.dtd">
<!-- Creator: CorelDRAW 2019 (64-Bit) -->
<svg xmlns="http://www.w3.org/2000/svg" xml:space="preserve" width="0.836661in" height="0.0833307in" version="1.1" style="shape-rendering:geometricPrecision; text-rendering:geometricPrecision; image-rendering:optimizeQuality; fill-rule:evenodd; clip-rule:evenodd"
viewBox="0 0 836.66 83.33"
 xmlns:xlink="http://www.w3.org/1999/xlink">
 <defs>
  <style type="text/css">
   <![CDATA[
    .fil1 {fill:#009183}
    .fil0 {fill:#2C2D30;fill-rule:nonzero}
   ]]>
  </style>
 </defs>
 <g id="Layer_x0020_1">
  <metadata id="CorelCorpID_0Corel-Layer"/>
  <g id="_2811826879968">
   <path class="fil0" d="M833.81 83.62l0 -80.57 -17.5 0 0 49.61 -37.76 -49.61 -16.34 0 0 80.57 17.5 0 0 -51.22 39.02 51.22 15.08 0zm-760.05 -40.29l0 -0.23c0,-22.67 -17.5,-40.06 -42.82,-40.06l-31.43 0 0 58.2 17.73 0 0 -42.2 13.7 0c14.5,0 24.29,10.02 24.29,24.29l0 0.23c0,14.27 -9.78,24.06 -24.29,24.06l-7.33 0 0 16 7.33 0c25.32,0 42.82,-17.61 42.82,-40.29zm73.33 40.29l0 -15.77 -43.74 0 0 -16.92 37.98 0 0 -15.77 -37.98 0 0 -16.35 43.16 0 0 -15.77 -60.77 0 0 80.57 61.35 0zm82.77 -13.01l-11.28 -11.39c-6.33,5.75 -11.97,9.44 -21.18,9.44 -13.81,0 -23.36,-11.51 -23.36,-25.32l0 -0.23c0,-13.81 9.78,-25.09 23.36,-25.09 8.06,0 14.39,3.45 20.61,9.09l11.28 -13.01c-7.48,-7.37 -16.57,-12.43 -31.77,-12.43 -24.74,0 -42.01,18.76 -42.01,41.67l0 0.23c0,23.13 17.61,41.43 41.32,41.43 15.54,0 24.75,-5.52 33.04,-14.39zm90.14 -27.28l0 -0.23c0,-22.9 -17.84,-41.44 -42.7,-41.44 -24.86,0 -42.93,18.76 -42.93,41.67l0 0.23c0,22.9 17.84,41.43 42.7,41.43 24.86,0 42.93,-18.76 42.93,-41.67zm-18.53 0.23c0,13.81 -9.9,25.09 -24.17,25.09 -14.27,0 -24.4,-11.51 -24.4,-25.32l0 -0.23c0,-13.81 9.9,-25.09 24.17,-25.09 14.28,0 24.4,11.51 24.4,25.32l0 0.23zm100.15 40.06l-19.68 -28.78c10.24,-3.8 17.27,-11.97 17.27,-24.98l0 -0.23c0,-16.57 -11.4,-26.59 -30.39,-26.59l-36.83 0 0 80.57 17.73 0 0 -25.79 13.93 0 17.27 25.79 20.72 0zm-20.37 -52.83c0,6.79 -4.95,11.39 -13.58,11.39l-17.96 0 0 -23.13 17.61 0c8.63,0 13.93,3.91 13.93,11.51l0 0.23zm138.59 -27.74l-19.11 0 -21.06 56.75 -21.06 -56.75 -19.57 0 32.57 81.15 15.65 0 32.57 -81.15zm27.18 0l-17.73 0 0 80.57 17.73 0 0 -80.57zm74.6 56.75l0 -0.23c0,-14.04 -9.21,-19.91 -25.56,-24.17 -13.93,-3.57 -17.38,-5.3 -17.38,-10.59l0 -0.23c0,-3.91 3.57,-7.02 10.36,-7.02 6.79,0 13.81,2.99 20.95,7.94l9.21 -13.35c-8.17,-6.56 -18.19,-10.24 -29.93,-10.24 -16.46,0 -28.2,9.67 -28.2,24.29l0 0.23c0,16 10.47,20.49 26.7,24.63 13.46,3.45 16.23,5.75 16.23,10.24l0 0.23c0,4.72 -4.37,7.6 -11.63,7.6 -9.21,0 -16.8,-3.8 -24.06,-9.78l-10.48 12.54c9.67,8.63 21.98,12.89 34.19,12.89 17.38,0 29.58,-8.98 29.58,-24.98zm30.17 -56.75l-17.72 0 0 80.57 17.72 0 0 -80.57zm98.43 40.29l0 -0.23c0,-22.9 -17.84,-41.44 -42.7,-41.44 -24.87,0 -42.93,18.76 -42.93,41.67l0 0.23c0,22.9 17.84,41.43 42.7,41.43 24.86,0 42.93,-18.76 42.93,-41.67zm-18.53 0.23c0,13.81 -9.89,25.09 -24.17,25.09 -14.28,0 -24.41,-11.51 -24.41,-25.32l0 -0.23c0,-13.81 9.9,-25.09 24.17,-25.09 14.27,0 24.4,11.51 24.4,25.32l0 0.23z"/>
   <polygon class="fil1" points="-0.48,83.62 17.25,83.62 17.25,67.62 -0.48,67.62 "/>
  </g>
 </g>
</svg>
