<?xml version="1.0" encoding="utf-8"?>
<!-- Generator: Adobe Illustrator 16.0.0, SVG Export Plug-In . SVG Version: 6.00 Build 0)  -->
<!DOCTYPE svg PUBLIC "-//W3C//DTD SVG 1.0//EN" "http://www.w3.org/TR/2001/REC-SVG-20010904/DTD/svg10.dtd">
<svg version="1.0" id="Layer_1" xmlns="http://www.w3.org/2000/svg" xmlns:xlink="http://www.w3.org/1999/xlink" x="0px" y="0px"
	 width="64px" height="64px" viewBox="0 0 64 64" enable-background="new 0 0 64 64" xml:space="preserve">
<g>
	<path fill-rule="evenodd" clip-rule="evenodd" fill="#394240" d="M12,32.001c0-1.105-0.895-2-2-2H2c-1.105,0-2,0.895-2,2    s0.895,2,2,2h8C11.105,34.001,12,33.106,12,32.001z"/>
	<path fill-rule="evenodd" clip-rule="evenodd" fill="#394240" d="M10.591,43.032l1.848-0.766c1.021-0.422,1.506-1.59,1.084-2.609    c-0.424-1.023-1.594-1.508-2.613-1.082l-1.848,0.762c-1.021,0.422-1.507,1.59-1.083,2.613C8.402,42.97,9.57,43.454,10.591,43.032z"/>
	<path fill-rule="evenodd" clip-rule="evenodd" fill="#394240" d="M24.349,50.477c-1.021-0.422-2.193,0.062-2.613,1.082    l-0.766,1.848c-0.424,1.023,0.059,2.191,1.08,2.613s2.191-0.059,2.615-1.082l0.764-1.844C25.851,52.07,25.368,50.898,24.349,50.477    z"/>
	<path fill-rule="evenodd" clip-rule="evenodd" fill="#394240" d="M42.269,51.562c-0.422-1.023-1.594-1.508-2.613-1.086    s-1.508,1.594-1.082,2.613l0.766,1.848c0.424,1.02,1.59,1.508,2.609,1.082c1.023-0.422,1.508-1.59,1.086-2.613L42.269,51.562z"/>
	<path fill-rule="evenodd" clip-rule="evenodd" fill="#394240" d="M54.939,39.333l-1.844-0.762    c-1.023-0.426-2.195,0.062-2.617,1.082c-0.424,1.02,0.062,2.191,1.082,2.613l1.848,0.766c1.023,0.422,2.191-0.059,2.609-1.082    C56.445,40.927,55.963,39.759,54.939,39.333z"/>
	<path fill-rule="evenodd" clip-rule="evenodd" fill="#394240" d="M53.406,20.962l-1.842,0.766    c-1.025,0.422-1.508,1.598-1.086,2.617c0.418,1.02,1.594,1.504,2.613,1.082l1.848-0.766c1.021-0.422,1.508-1.59,1.078-2.609    C55.6,21.028,54.432,20.54,53.406,20.962z"/>
	<path fill-rule="evenodd" clip-rule="evenodd" fill="#394240" d="M39.655,13.521c1.016,0.426,2.189-0.066,2.611-1.086l0.766-1.848    c0.424-1.02-0.057-2.188-1.084-2.605c-1.018-0.43-2.189,0.051-2.613,1.078l-0.764,1.84C38.147,11.927,38.636,13.099,39.655,13.521z    "/>
	<path fill-rule="evenodd" clip-rule="evenodd" fill="#394240" d="M21.729,12.435c0.426,1.023,1.598,1.508,2.617,1.086    c1.02-0.418,1.504-1.594,1.078-2.613l-0.764-1.852c-0.42-1.019-1.588-1.503-2.611-1.074c-1.02,0.417-1.508,1.585-1.082,2.609    L21.729,12.435z"/>
	<path fill-rule="evenodd" clip-rule="evenodd" fill="#394240" d="M9.062,24.661l1.844,0.766c1.023,0.422,2.195-0.062,2.617-1.082    c0.426-1.016-0.062-2.191-1.086-2.609l-1.848-0.77c-1.02-0.426-2.188,0.059-2.609,1.086C7.559,23.067,8.039,24.239,9.062,24.661z"/>
	<path fill-rule="evenodd" clip-rule="evenodd" fill="#394240" d="M15.031,46.142l-5.658,5.655c-0.781,0.785-0.781,2.047,0,2.828    c0.783,0.785,2.049,0.785,2.83,0.004l5.656-5.656c0.781-0.781,0.781-2.046,0-2.831C17.077,45.36,15.812,45.36,15.031,46.142z"/>
	<path fill-rule="evenodd" clip-rule="evenodd" fill="#394240" d="M32.001,52c-1.105,0-2,0.891-2,2l-0.002,8c0,1.105,0.895,2,2,2    c1.109,0,2.004-0.895,2.004-2v-8C34.003,52.895,33.108,52,32.001,52z"/>
	<path fill-rule="evenodd" clip-rule="evenodd" fill="#394240" d="M48.973,46.138c-0.781-0.781-2.046-0.781-2.829,0.004    c-0.781,0.781-0.783,2.042,0,2.827l5.655,5.66c0.781,0.781,2.047,0.781,2.828,0c0.785-0.785,0.785-2.051,0.004-2.832L48.973,46.138    z"/>
	<path fill-rule="evenodd" clip-rule="evenodd" fill="#394240" d="M62.002,29.997H54c-1.105,0-2,0.891-2,2.004    c0.002,1.102,0.893,1.996,2,2h8.002c1.105,0,2-0.895,2-2C64.002,30.892,63.107,29.997,62.002,29.997z"/>
	<path fill-rule="evenodd" clip-rule="evenodd" fill="#394240" d="M48.971,17.856l5.66-5.656c0.781-0.781,0.781-2.047-0.002-2.832    c-0.783-0.781-2.049-0.781-2.83,0l-5.659,5.656c-0.781,0.781-0.781,2.046,0.004,2.832C46.925,18.634,48.186,18.638,48.971,17.856z"/>
	<path fill-rule="evenodd" clip-rule="evenodd" fill="#394240" d="M32.001,12.001c1.102-0.004,1.996-0.898,2-2l0.002-8.003    c0-1.105-0.895-2-2.004-2c-1.105,0-2,0.895-2,2l-0.004,8C29.995,11.103,30.89,11.998,32.001,12.001z"/>
	<path fill-rule="evenodd" clip-rule="evenodd" fill="#394240" d="M15.025,17.856c0.781,0.781,2.044,0.785,2.833,0    c0.777-0.781,0.777-2.042,0-2.828l-5.656-5.66c-0.781-0.781-2.047-0.781-2.832,0.004c-0.781,0.781-0.781,2.047,0,2.828    L15.025,17.856z"/>
	<path fill-rule="evenodd" clip-rule="evenodd" fill="#394240" d="M31.999,14.001c-9.941,0-18,8.058-18,18S22.058,50,31.999,50    s17.999-8.058,17.999-17.999S41.94,14.001,31.999,14.001z M31.999,46.001c-7.732,0-14-6.27-14-14c0-7.734,6.268-14,14-14    s14,6.266,14,14C45.999,39.731,39.731,46.001,31.999,46.001z"/>
	<circle fill-rule="evenodd" clip-rule="evenodd" fill="#F9EBB2" cx="31.999" cy="31.997" r="14"/>
</g>
</svg>
